{
  "accessors": [
    {
      "bufferView": 2,
      "componentType": 5126,
      "count": 2501,
      "max": [
        0.9990085959434509,
        2.0591306686401367,
        1.4629868268966675
      ],
      "min": [
        -2.757910966873169,
        -1.9980171918869019,
        -0.2698507010936737
      ],
      "type": "VEC3"
    },
    {
      "bufferView": 2,
      "byteOffset": 30012,
      "componentType": 5126,
      "count": 2501,
      "type": "VEC3"
    },
    {
      "bufferView": 1,
      "componentType": 5126,
      "count": 2501,
      "type": "VEC2"
    },
    {
      "bufferView": 0,
      "componentType": 5125,
      "count": 10959,
      "type": "SCALAR"
    },
    {
      "bufferView": 2,
      "byteOffset": 60024,
      "componentType": 5126,
      "count": 1552,
      "max": [
        -0.9065338373184204,
        2.0,
        1.0348868370056152
      ],
      "min": [
        -2.9430222511291504,
        -2.0,
        -0.9651131629943848
      ],
      "type": "VEC3"
    },
    {
      "bufferView": 2,
      "byteOffset": 78648,
      "componentType": 5126,
      "count": 1552,
      "type": "VEC3"
    },
    {
      "bufferView": 3,
      "componentType": 5126,
      "count": 1552,
      "type": "VEC4"
    },
    {
      "bufferView": 1,
      "byteOffset": 20008,
      "componentType": 5126,
      "count": 1552,
      "type": "VEC2"
    },
    {
      "bufferView": 0,
      "byteOffset": 43836,
      "componentType": 5125,
      "count": 6894,
      "type": "SCALAR"
    },
    {
      "bufferView": 2,
      "byteOffset": 97272,
      "componentType": 5126,
      "count": 5548,
      "max": [
        -0.9065338373184204,
        2.1397347450256348,
        1.0469251871109009
      ],
      "min": [
        -2.909879207611084,
        -2.1409952640533447,
        -0.9049954414367676
      ],
      "type": "VEC3"
    },
    {
      "bufferView": 2,
      "byteOffset": 163848,
      "componentType": 5126,
      "count": 5548,
      "type": "VEC3"
    },
    {
      "bufferView": 1,
      "byteOffset": 32424,
      "componentType": 5126,
      "count": 5548,
      "type": "VEC2"
    },
    {
      "bufferView": 0,
      "byteOffset": 71412,
      "componentType": 5125,
      "count": 22692,
      "type": "SCALAR"
    }
  ],
  "asset": {
    "generator": "fab-model-conversion",
    "version": "2.0"
  },
  "bufferViews": [
    {
      "buffer": 0,
      "byteLength": 162180,
      "target": 34963
    },
    {
      "buffer": 0,
      "byteLength": 76808,
      "byteOffset": 162180,
      "byteStride": 8,
      "target": 34962
    },
    {
      "buffer": 0,
      "byteLength": 230424,
      "byteOffset": 238988,
      "byteStride": 12,
      "target": 34962
    },
    {
      "buffer": 0,
      "byteLength": 24832,
      "byteOffset": 469412,
      "byteStride": 16,
      "target": 34962
    }
  ],
  "buffers": [
    {
      "byteLength": 494244,
      "uri": "scene.bin"
    }
  ],
  "images": [
    {
      "uri": "textures/DualTone_bo_baseColor.png"
    },
    {
      "uri": "textures/DualTone_bo_metallicRoughness.png"
    },
    {
      "uri": "textures/DualTone_bo_normal.png"
    }
  ],
  "materials": [
    {
      "doubleSided": true,
      "name": "BumpyWhite",
      "pbrMetallicRoughness": {
        "baseColorFactor": [
          0.8,
          0.8,
          0.8,
          1.0
        ],
        "metallicFactor": 0.0,
        "roughnessFactor": 0.8211145618000169
      }
    },
    {
      "doubleSided": true,
      "name": "DualTone_bo",
      "normalTexture": {
        "index": 2,
        "scale": 0.36511058596194934
      },
      "pbrMetallicRoughness": {
        "baseColorTexture": {
          "index": 0
        },
        "metallicFactor": 0.0,
        "metallicRoughnessTexture": {
          "index": 1
        }
      }
    },
    {
      "doubleSided": true,
      "name": "FlatWhite",
      "pbrMetallicRoughness": {
        "baseColorFactor": [
          0.8,
          0.8,
          0.8,
          1.0
        ],
        "metallicFactor": 0.0
      }
    }
  ],
  "meshes": [
    {
      "name": "BasicCoolerOpen_BumpyWhite_0",
      "primitives": [
        {
          "attributes": {
            "NORMAL": 1,
            "POSITION": 0,
            "TEXCOORD_0": 2
          },
          "indices": 3,
          "material": 0,
          "mode": 4
        }
      ]
    },
    {
      "name": "BasicCoolerOpen_DualTone_bo_0",
      "primitives": [
        {
          "attributes": {
            "NORMAL": 5,
            "POSITION": 4,
            "TANGENT": 6,
            "TEXCOORD_0": 7
          },
          "indices": 8,
          "material": 1,
          "mode": 4
        }
      ]
    },
    {
      "name": "BasicCoolerOpen_FlatWhite_0",
      "primitives": [
        {
          "attributes": {
            "NORMAL": 10,
            "POSITION": 9,
            "TEXCOORD_0": 11
          },
          "indices": 12,
          "material": 2,
          "mode": 4
        }
      ]
    }
  ],
  "nodes": [
    {
      "children": [
        1
      ],
      "matrix": [
        1.0,
        0.0,
        0.0,
        0.0,
        0.0,
        2.220446049250313e-16,
        -1.0,
        0.0,
        0.0,
        1.0,
        2.220446049250313e-16,
        0.0,
        0.0,
        0.0,
        0.0,
        1.0
      ],
      "name": "Sketchfab_model"
    },
    {
      "children": [
        2
      ],
      "matrix": [
        0.009999999776482582,
        0.0,
        0.0,
        0.0,
        0.0,
        0.0,
        0.009999999776482582,
        0.0,
        0.0,
        -0.009999999776482582,
        0.0,
        0.0,
        0.0,
        0.0,
        0.0,
        1.0
      ],
      "name": "aee2fa63e0ab44d590d0066b78a11ae6.fbx"
    },
    {
      "children": [
        3
      ],
      "name": "RootNode"
    },
    {
      "children": [
        4,
        5,
        6
      ],
      "matrix": [
        7.549789948768648e-06,
        99.99999999999966,
        3.809513415831134e-06,
        0.0,
        63.39500963438288,
        -1.8400116319483573e-06,
        -77.33739556939128,
        0.0,
        -77.33739556939094,
        8.253852323836242e-06,
        -63.3950096343828,
        0.0,
        -72.82051086425781,
        537.149169921875,
        -708.3909301757813,
        1.0
      ],
      "name": "BasicCoolerOpen"
    },
    {
      "mesh": 0,
      "name": "BasicCoolerOpen_BumpyWhite_0"
    },
    {
      "mesh": 1,
      "name": "BasicCoolerOpen_DualTone_bo_0"
    },
    {
      "mesh": 2,
      "name": "BasicCoolerOpen_FlatWhite_0"
    }
  ],
  "samplers": [
    {
      "magFilter": 9729,
      "minFilter": 9987,
      "wrapS": 10497,
      "wrapT": 10497
    }
  ],
  "scene": 0,
  "scenes": [
    {
      "name": "Sketchfab_Scene",
      "nodes": [
        0
      ]
    }
  ],
  "textures": [
    {
      "sampler": 0,
      "source": 0
    },
    {
      "sampler": 0,
      "source": 1
    },
    {
      "sampler": 0,
      "source": 2
    }
  ]
}
