{
  "accessors": [
    {
      "bufferView": 2,
      "componentType": 5126,
      "count": 377,
      "max": [
        633.9278564453125,
        739.8287963867188,
        219.594970703125
      ],
      "min": [
        -633.92724609375,
        -739.8287353515625,
        0.4809570014476776
      ],
      "type": "VEC3"
    },
    {
      "bufferView": 2,
      "byteOffset": 4524,
      "componentType": 5126,
      "count": 377,
      "type": "VEC3"
    },
    {
      "bufferView": 3,
      "componentType": 5126,
      "count": 377,
      "type": "VEC4"
    },
    {
      "bufferView": 1,
      "componentType": 5126,
      "count": 377,
      "type": "VEC2"
    },
    {
      "bufferView": 0,
      "componentType": 5125,
      "count": 2088,
      "type": "SCALAR"
    },
    {
      "bufferView": 2,
      "byteOffset": 9048,
      "componentType": 5126,
      "count": 5052,
      "max": [
        624.0679321289063,
        309.9020080566406,
        1779.1279296875
      ],
      "min": [
        -343.30517578125,
        -538.6367797851563,
        126.8326416015625
      ],
      "type": "VEC3"
    },
    {
      "bufferView": 2,
      "byteOffset": 69672,
      "componentType": 5126,
      "count": 5052,
      "type": "VEC3"
    },
    {
      "bufferView": 3,
      "byteOffset": 6032,
      "componentType": 5126,
      "count": 5052,
      "type": "VEC4"
    },
    {
      "bufferView": 1,
      "byteOffset": 3016,
      "componentType": 5126,
      "count": 5052,
      "type": "VEC2"
    },
    {
      "bufferView": 0,
      "byteOffset": 8352,
      "componentType": 5125,
      "count": 16188,
      "type": "SCALAR"
    },
    {
      "bufferView": 2,
      "byteOffset": 130296,
      "componentType": 5126,
      "count": 65532,
      "max": [
        1135.33984375,
        834.5060424804688,
        2154.95947265625
      ],
      "min": [
        -792.4305419921875,
        -855.53369140625,
        1292.92822265625
      ],
      "type": "VEC3"
    },
    {
      "bufferView": 2,
      "byteOffset": 916680,
      "componentType": 5126,
      "count": 65532,
      "type": "VEC3"
    },
    {
      "bufferView": 3,
      "byteOffset": 86864,
      "componentType": 5126,
      "count": 65532,
      "type": "VEC4"
    },
    {
      "bufferView": 1,
      "byteOffset": 43432,
      "componentType": 5126,
      "count": 65532,
      "type": "VEC2"
    },
    {
      "bufferView": 0,
      "byteOffset": 73104,
      "componentType": 5125,
      "count": 182082,
      "type": "SCALAR"
    },
    {
      "bufferView": 2,
      "byteOffset": 1703064,
      "componentType": 5126,
      "count": 15160,
      "max": [
        1141.43603515625,
        553.9671020507813,
        2030.27783203125
      ],
      "min": [
        -713.4293212890625,
        -969.5134887695313,
        1136.337158203125
      ],
      "type": "VEC3"
    },
    {
      "bufferView": 2,
      "byteOffset": 1884984,
      "componentType": 5126,
      "count": 15160,
      "type": "VEC3"
    },
    {
      "bufferView": 3,
      "byteOffset": 1135376,
      "componentType": 5126,
      "count": 15160,
      "type": "VEC4"
    },
    {
      "bufferView": 1,
      "byteOffset": 567688,
      "componentType": 5126,
      "count": 15160,
      "type": "VEC2"
    },
    {
      "bufferView": 0,
      "byteOffset": 801432,
      "componentType": 5125,
      "count": 42702,
      "type": "SCALAR"
    },
    {
      "bufferView": 2,
      "byteOffset": 2066904,
      "componentType": 5126,
      "count": 63648,
      "max": [
        1141.43603515625,
        834.5060424804688,
        2154.95947265625
      ],
      "min": [
        -792.4305419921875,
        -969.5134887695313,
        1136.337158203125
      ],
      "type": "VEC3"
    },
    {
      "bufferView": 2,
      "byteOffset": 2830680,
      "componentType": 5126,
      "count": 63648,
      "type": "VEC3"
    },
    {
      "bufferView": 3,
      "byteOffset": 1377936,
      "componentType": 5126,
      "count": 63648,
      "type": "VEC4"
    },
    {
      "bufferView": 1,
      "byteOffset": 688968,
      "componentType": 5126,
      "count": 63648,
      "type": "VEC2"
    },
    {
      "bufferView": 0,
      "byteOffset": 972240,
      "componentType": 5125,
      "count": 158976,
      "type": "SCALAR"
    },
    {
      "bufferView": 2,
      "byteOffset": 3594456,
      "componentType": 5126,
      "count": 18720,
      "max": [
        1141.43603515625,
        834.5060424804688,
        2154.95947265625
      ],
      "min": [
        -792.4305419921875,
        -969.5134887695313,
        1136.337158203125
      ],
      "type": "VEC3"
    },
    {
      "bufferView": 2,
      "byteOffset": 3819096,
      "componentType": 5126,
      "count": 18720,
      "type": "VEC3"
    },
    {
      "bufferView": 3,
      "byteOffset": 2396304,
      "componentType": 5126,
      "count": 18720,
      "type": "VEC4"
    },
    {
      "bufferView": 1,
      "byteOffset": 1198152,
      "componentType": 5126,
      "count": 18720,
      "type": "VEC2"
    },
    {
      "bufferView": 0,
      "byteOffset": 1608144,
      "componentType": 5125,
      "count": 38160,
      "type": "SCALAR"
    }
  ],
  "asset": {
    "generator": "fab-model-conversion",
    "version": "2.0"
  },
  "bufferViews": [
    {
      "buffer": 0,
      "byteLength": 1760784,
      "target": 34963
    },
    {
      "buffer": 0,
      "byteLength": 1347912,
      "byteOffset": 1760784,
      "byteStride": 8,
      "target": 34962
    },
    {
      "buffer": 0,
      "byteLength": 4043736,
      "byteOffset": 3108696,
      "byteStride": 12,
      "target": 34962
    },
    {
      "buffer": 0,
      "byteLength": 2695824,
      "byteOffset": 7152432,
      "byteStride": 16,
      "target": 34962
    }
  ],
  "buffers": [
    {
      "byteLength": 9848256,
      "uri": "scene.bin"
    }
  ],
  "extensionsUsed": [
    "KHR_materials_specular"
  ],
  "images": [
    {
      "uri": "textures/leaves_mat_baseColor.png"
    },
    {
      "uri": "textures/leaves_mat_metallicRoughness.png"
    },
    {
      "uri": "textures/leaves_mat_normal.png"
    },
    {
      "uri": "textures/sand_mat_baseColor.png"
    },
    {
      "uri": "textures/sand_mat_metallicRoughness.png"
    },
    {
      "uri": "textures/sand_mat_normal.png"
    },
    {
      "uri": "textures/wood_mat_baseColor.png"
    },
    {
      "uri": "textures/wood_mat_metallicRoughness.png"
    },
    {
      "uri": "textures/wood_mat_normal.png"
    }
  ],
  "materials": [
    {
      "doubleSided": true,
      "extensions": {
        "KHR_materials_specular": {
          "specularColorFactor": [
            1.0,
            1.0,
            1.0
          ],
          "specularFactor": 0.547296836159446
        }
      },
      "name": "leaves_mat",
      "normalTexture": {
        "index": 2
      },
      "pbrMetallicRoughness": {
        "baseColorTexture": {
          "index": 0
        },
        "metallicFactor": 0.0,
        "metallicRoughnessTexture": {
          "index": 1
        }
      }
    },
    {
      "doubleSided": true,
      "name": "sand_mat",
      "normalTexture": {
        "index": 5
      },
      "pbrMetallicRoughness": {
        "baseColorTexture": {
          "index": 3
        },
        "metallicFactor": 0.0,
        "metallicRoughnessTexture": {
          "index": 4
        }
      }
    },
    {
      "doubleSided": true,
      "name": "wood_mat",
      "normalTexture": {
        "index": 8
      },
      "pbrMetallicRoughness": {
        "baseColorTexture": {
          "index": 6
        },
        "metallicFactor": 0.0,
        "metallicRoughnessTexture": {
          "index": 7
        }
      }
    }
  ],
  "meshes": [
    {
      "name": "Object_0",
      "primitives": [
        {
          "attributes": {
            "NORMAL": 1,
            "POSITION": 0,
            "TANGENT": 2,
            "TEXCOORD_0": 3
          },
          "indices": 4,
          "material": 1,
          "mode": 4
        }
      ]
    },
    {
      "name": "Object_1",
      "primitives": [
        {
          "attributes": {
            "NORMAL": 6,
            "POSITION": 5,
            "TANGENT": 7,
            "TEXCOORD_0": 8
          },
          "indices": 9,
          "material": 2,
          "mode": 4
        }
      ]
    },
    {
      "name": "Object_2",
      "primitives": [
        {
          "attributes": {
            "NORMAL": 11,
            "POSITION": 10,
            "TANGENT": 12,
            "TEXCOORD_0": 13
          },
          "indices": 14,
          "material": 0,
          "mode": 4
        }
      ]
    },
    {
      "name": "Object_3",
      "primitives": [
        {
          "attributes": {
            "NORMAL": 16,
            "POSITION": 15,
            "TANGENT": 17,
            "TEXCOORD_0": 18
          },
          "indices": 19,
          "material": 0,
          "mode": 4
        }
      ]
    },
    {
      "name": "Object_4",
      "primitives": [
        {
          "attributes": {
            "NORMAL": 21,
            "POSITION": 20,
            "TANGENT": 22,
            "TEXCOORD_0": 23
          },
          "indices": 24,
          "material": 0,
          "mode": 4
        }
      ]
    },
    {
      "name": "Object_5",
      "primitives": [
        {
          "attributes": {
            "NORMAL": 26,
            "POSITION": 25,
            "TANGENT": 27,
            "TEXCOORD_0": 28
          },
          "indices": 29,
          "material": 0,
          "mode": 4
        }
      ]
    }
  ],
  "nodes": [
    {
      "children": [
        1
      ],
      "matrix": [
        1.0,
        0.0,
        0.0,
        0.0,
        0.0,
        2.220446049250313e-16,
        -1.0,
        0.0,
        0.0,
        1.0,
        2.220446049250313e-16,
        0.0,
        0.0,
        0.0,
        0.0,
        1.0
      ],
      "name": "Sketchfab_model"
    },
    {
      "children": [
        2,
        3,
        4,
        5,
        6,
        7
      ],
      "name": "island.obj.cleaner.materialmerger.gles"
    },
    {
      "mesh": 0,
      "name": "Object_2"
    },
    {
      "mesh": 1,
      "name": "Object_3"
    },
    {
      "mesh": 2,
      "name": "Object_4"
    },
    {
      "mesh": 3,
      "name": "Object_5"
    },
    {
      "mesh": 4,
      "name": "Object_6"
    },
    {
      "mesh": 5,
      "name": "Object_7"
    }
  ],
  "samplers": [
    {
      "magFilter": 9729,
      "minFilter": 9987,
      "wrapS": 10497,
      "wrapT": 10497
    }
  ],
  "scene": 0,
  "scenes": [
    {
      "name": "Sketchfab_Scene",
      "nodes": [
        0
      ]
    }
  ],
  "textures": [
    {
      "sampler": 0,
      "source": 0
    },
    {
      "sampler": 0,
      "source": 1
    },
    {
      "sampler": 0,
      "source": 2
    },
    {
      "sampler": 0,
      "source": 3
    },
    {
      "sampler": 0,
      "source": 4
    },
    {
      "sampler": 0,
      "source": 5
    },
    {
      "sampler": 0,
      "source": 6
    },
    {
      "sampler": 0,
      "source": 7
    },
    {
      "sampler": 0,
      "source": 8
    }
  ]
}
