{
  "accessors": [
    {
      "bufferView": 2,
      "componentType": 5126,
      "count": 65532,
      "max": [
        0.03888041898608208,
        0.03903497755527496,
        -0.19042789936065674
      ],
      "min": [
        -0.03918958827853203,
        -0.03903502970933914,
        -0.23591497540473938
      ],
      "type": "VEC3"
    },
    {
      "bufferView": 2,
      "byteOffset": 786384,
      "componentType": 5126,
      "count": 65532,
      "type": "VEC3"
    },
    {
      "bufferView": 3,
      "componentType": 5126,
      "count": 65532,
      "type": "VEC4"
    },
    {
      "bufferView": 1,
      "componentType": 5126,
      "count": 65532,
      "type": "VEC2"
    },
    {
      "bufferView": 1,
      "byteOffset": 524256,
      "componentType": 5126,
      "count": 65532,
      "type": "VEC2"
    },
    {
      "bufferView": 1,
      "byteOffset": 1048512,
      "componentType": 5126,
      "count": 65532,
      "type": "VEC2"
    },
    {
      "bufferView": 1,
      "byteOffset": 1572768,
      "componentType": 5126,
      "count": 65532,
      "type": "VEC2"
    },
    {
      "bufferView": 0,
      "componentType": 5125,
      "count": 353064,
      "type": "SCALAR"
    },
    {
      "bufferView": 2,
      "byteOffset": 1572768,
      "componentType": 5126,
      "count": 22118,
      "max": [
        0.03888041898608208,
        0.03625662252306938,
        -0.19042789936065674
      ],
      "min": [
        -0.03695451468229294,
        -0.03845072165131569,
        -0.23591497540473938
      ],
      "type": "VEC3"
    },
    {
      "bufferView": 2,
      "byteOffset": 1838184,
      "componentType": 5126,
      "count": 22118,
      "type": "VEC3"
    },
    {
      "bufferView": 3,
      "byteOffset": 1048512,
      "componentType": 5126,
      "count": 22118,
      "type": "VEC4"
    },
    {
      "bufferView": 1,
      "byteOffset": 2097024,
      "componentType": 5126,
      "count": 22118,
      "type": "VEC2"
    },
    {
      "bufferView": 1,
      "byteOffset": 2273968,
      "componentType": 5126,
      "count": 22118,
      "type": "VEC2"
    },
    {
      "bufferView": 1,
      "byteOffset": 2450912,
      "componentType": 5126,
      "count": 22118,
      "type": "VEC2"
    },
    {
      "bufferView": 1,
      "byteOffset": 2627856,
      "componentType": 5126,
      "count": 22118,
      "type": "VEC2"
    },
    {
      "bufferView": 0,
      "byteOffset": 1412256,
      "componentType": 5125,
      "count": 121560,
      "type": "SCALAR"
    },
    {
      "bufferView": 2,
      "byteOffset": 2103600,
      "componentType": 5126,
      "count": 949,
      "max": [
        0.034921787679195404,
        0.03507634997367859,
        -0.17839816212654114
      ],
      "min": [
        -0.035230956971645355,
        -0.03507639467716217,
        -0.17970260977745056
      ],
      "type": "VEC3"
    },
    {
      "bufferView": 2,
      "byteOffset": 2114988,
      "componentType": 5126,
      "count": 949,
      "type": "VEC3"
    },
    {
      "bufferView": 3,
      "byteOffset": 1402400,
      "componentType": 5126,
      "count": 949,
      "type": "VEC4"
    },
    {
      "bufferView": 1,
      "byteOffset": 2804800,
      "componentType": 5126,
      "count": 949,
      "type": "VEC2"
    },
    {
      "bufferView": 1,
      "byteOffset": 2812392,
      "componentType": 5126,
      "count": 949,
      "type": "VEC2"
    },
    {
      "bufferView": 1,
      "byteOffset": 2819984,
      "componentType": 5126,
      "count": 949,
      "type": "VEC2"
    },
    {
      "bufferView": 1,
      "byteOffset": 2827576,
      "componentType": 5126,
      "count": 949,
      "type": "VEC2"
    },
    {
      "bufferView": 0,
      "byteOffset": 1898496,
      "componentType": 5125,
      "count": 4608,
      "type": "SCALAR"
    },
    {
      "bufferView": 2,
      "byteOffset": 2126376,
      "componentType": 5126,
      "count": 2550,
      "max": [
        0.06987179070711136,
        0.07002636790275574,
        0.08379465341567993
      ],
      "min": [
        -0.07018095999956131,
        -0.07002637535333633,
        -0.048065099865198135
      ],
      "type": "VEC3"
    },
    {
      "bufferView": 2,
      "byteOffset": 2156976,
      "componentType": 5126,
      "count": 2550,
      "type": "VEC3"
    },
    {
      "bufferView": 1,
      "byteOffset": 2835168,
      "componentType": 5126,
      "count": 2550,
      "type": "VEC2"
    },
    {
      "bufferView": 0,
      "byteOffset": 1916928,
      "componentType": 5125,
      "count": 13824,
      "type": "SCALAR"
    },
    {
      "bufferView": 2,
      "byteOffset": 2187576,
      "componentType": 5126,
      "count": 21904,
      "max": [
        0.06982780247926712,
        0.0699823647737503,
        0.24872975051403046
      ],
      "min": [
        -0.07013695687055588,
        -0.0699823796749115,
        -0.19042791426181793
      ],
      "type": "VEC3"
    },
    {
      "bufferView": 2,
      "byteOffset": 2450424,
      "componentType": 5126,
      "count": 21904,
      "type": "VEC3"
    },
    {
      "bufferView": 3,
      "byteOffset": 1417584,
      "componentType": 5126,
      "count": 21904,
      "type": "VEC4"
    },
    {
      "bufferView": 1,
      "byteOffset": 2855568,
      "componentType": 5126,
      "count": 21904,
      "type": "VEC2"
    },
    {
      "bufferView": 1,
      "byteOffset": 3030800,
      "componentType": 5126,
      "count": 21904,
      "type": "VEC2"
    },
    {
      "bufferView": 1,
      "byteOffset": 3206032,
      "componentType": 5126,
      "count": 21904,
      "type": "VEC2"
    },
    {
      "bufferView": 1,
      "byteOffset": 3381264,
      "componentType": 5126,
      "count": 21904,
      "type": "VEC2"
    },
    {
      "bufferView": 1,
      "byteOffset": 3556496,
      "componentType": 5126,
      "count": 21904,
      "type": "VEC2"
    },
    {
      "bufferView": 0,
      "byteOffset": 1972224,
      "componentType": 5125,
      "count": 109056,
      "type": "SCALAR"
    }
  ],
  "asset": {
    "generator": "fab-model-conversion",
    "version": "2.0"
  },
  "bufferViews": [
    {
      "buffer": 0,
      "byteLength": 2408448,
      "target": 34963
    },
    {
      "buffer": 0,
      "byteLength": 3731728,
      "byteOffset": 2408448,
      "byteStride": 8,
      "target": 34962
    },
    {
      "buffer": 0,
      "byteLength": 2713272,
      "byteOffset": 6140176,
      "byteStride": 12,
      "target": 34962
    },
    {
      "buffer": 0,
      "byteLength": 1768048,
      "byteOffset": 8853448,
      "byteStride": 16,
      "target": 34962
    }
  ],
  "buffers": [
    {
      "byteLength": 10621496,
      "uri": "scene.bin"
    }
  ],
  "extensionsUsed": [
    "KHR_materials_transmission"
  ],
  "images": [
    {
      "uri": "textures/Plane.007_Baked_baseColor.jpeg"
    },
    {
      "uri": "textures/Plane.007_Baked_metallicRoughness.png"
    },
    {
      "uri": "textures/Plane.007_Baked_normal.jpeg"
    },
    {
      "uri": "textures/Plane.008_Baked_baseColor.jpeg"
    },
    {
      "uri": "textures/Plane.008_Baked_metallicRoughness.png"
    },
    {
      "uri": "textures/Plane.008_Baked_normal.jpeg"
    },
    {
      "uri": "textures/Material.002_baseColor.jpeg"
    },
    {
      "uri": "textures/Plane_Baked.003_baseColor.png"
    },
    {
      "uri": "textures/Plane_Baked.003_metallicRoughness.png"
    },
    {
      "uri": "textures/Plane_Baked.003_normal.jpeg"
    },
    {
      "uri": "textures/Plane_Baked.003_transmission.jpeg"
    }
  ],
  "materials": [
    {
      "doubleSided": true,
      "name": "Plane.007_Baked",
      "normalTexture": {
        "index": 2,
        "texCoord": 2
      },
      "pbrMetallicRoughness": {
        "baseColorTexture": {
          "index": 0
        },
        "metallicRoughnessTexture": {
          "index": 1,
          "texCoord": 1
        }
      }
    },
    {
      "doubleSided": true,
      "name": "Plane.008_Baked",
      "normalTexture": {
        "index": 5
      },
      "pbrMetallicRoughness": {
        "baseColorTexture": {
          "index": 3
        },
        "metallicRoughnessTexture": {
          "index": 4
        }
      }
    },
    {
      "doubleSided": true,
      "name": "Material.002",
      "pbrMetallicRoughness": {
        "baseColorTexture": {
          "index": 6
        },
        "metallicFactor": 0.0
      }
    },
    {
      "alphaMode": "BLEND",
      "doubleSided": true,
      "extensions": {
        "KHR_materials_transmission": {
          "transmissionFactor": 1.0,
          "transmissionTexture": {
            "index": 10
          }
        }
      },
      "name": "Plane_Baked.003",
      "normalTexture": {
        "index": 9
      },
      "pbrMetallicRoughness": {
        "baseColorTexture": {
          "index": 7
        },
        "metallicRoughnessTexture": {
          "index": 8
        }
      }
    }
  ],
  "meshes": [
    {
      "name": "Object_0",
      "primitives": [
        {
          "attributes": {
            "NORMAL": 1,
            "POSITION": 0,
            "TANGENT": 2,
            "TEXCOORD_0": 3,
            "TEXCOORD_1": 4,
            "TEXCOORD_2": 5,
            "TEXCOORD_3": 6
          },
          "indices": 7,
          "material": 0,
          "mode": 4
        }
      ]
    },
    {
      "name": "Object_1",
      "primitives": [
        {
          "attributes": {
            "NORMAL": 9,
            "POSITION": 8,
            "TANGENT": 10,
            "TEXCOORD_0": 11,
            "TEXCOORD_1": 12,
            "TEXCOORD_2": 13,
            "TEXCOORD_3": 14
          },
          "indices": 15,
          "material": 0,
          "mode": 4
        }
      ]
    },
    {
      "name": "Object_2",
      "primitives": [
        {
          "attributes": {
            "NORMAL": 17,
            "POSITION": 16,
            "TANGENT": 18,
            "TEXCOORD_0": 19,
            "TEXCOORD_1": 20,
            "TEXCOORD_2": 21,
            "TEXCOORD_3": 22
          },
          "indices": 23,
          "material": 1,
          "mode": 4
        }
      ]
    },
    {
      "name": "Object_3",
      "primitives": [
        {
          "attributes": {
            "NORMAL": 25,
            "POSITION": 24,
            "TEXCOORD_0": 26
          },
          "indices": 27,
          "material": 2,
          "mode": 4
        }
      ]
    },
    {
      "name": "Object_4",
      "primitives": [
        {
          "attributes": {
            "NORMAL": 29,
            "POSITION": 28,
            "TANGENT": 30,
            "TEXCOORD_0": 31,
            "TEXCOORD_1": 32,
            "TEXCOORD_2": 33,
            "TEXCOORD_3": 34,
            "TEXCOORD_4": 35
          },
          "indices": 36,
          "material": 3,
          "mode": 4
        }
      ]
    }
  ],
  "nodes": [
    {
      "children": [
        1
      ],
      "matrix": [
        1.0,
        0.0,
        0.0,
        0.0,
        0.0,
        2.220446049250313e-16,
        -1.0,
        0.0,
        0.0,
        1.0,
        2.220446049250313e-16,
        0.0,
        0.0,
        0.0,
        0.0,
        1.0
      ],
      "name": "Sketchfab_model"
    },
    {
      "children": [
        2
      ],
      "name": "root"
    },
    {
      "children": [
        3,
        6,
        8,
        10
      ],
      "matrix": [
        1.0,
        0.0,
        0.0,
        0.0,
        0.0,
        2.220446049250313e-16,
        1.0,
        0.0,
        0.0,
        -1.0,
        2.220446049250313e-16,
        0.0,
        0.0,
        0.0,
        0.0,
        1.0
      ],
      "name": "GLTF_SceneRootNode"
    },
    {
      "children": [
        4,
        5
      ],
      "matrix": [
        1.0,
        0.0,
        0.0,
        0.0,
        0.0,
        -3.371747936409264e-07,
        0.999999999999943,
        0.0,
        0.0,
        -0.999999999999943,
        -3.371747936409264e-07,
        0.0,
        -0.01234808936715126,
        -0.0007729174685664475,
        0.0,
        1.0
      ],
      "name": "Cover_0"
    },
    {
      "mesh": 0,
      "name": "Object_4"
    },
    {
      "mesh": 1,
      "name": "Object_5"
    },
    {
      "children": [
        7
      ],
      "matrix": [
        1.0,
        0.0,
        0.0,
        0.0,
        0.0,
        -3.371747936409264e-07,
        0.999999999999943,
        0.0,
        0.0,
        -0.999999999999943,
        -3.371747936409264e-07,
        0.0,
        -0.01234808936715126,
        -0.0007729174685664475,
        0.0,
        1.0
      ],
      "name": "Ring Plastic_1"
    },
    {
      "mesh": 2,
      "name": "Object_7"
    },
    {
      "children": [
        9
      ],
      "matrix": [
        1.0020147562026978,
        0.0,
        0.0,
        0.0,
        0.0,
        -3.378541186478078e-07,
        1.0020147562026407,
        0.0,
        0.0,
        -1.0020147562026407,
        -3.378541186478078e-07,
        0.0,
        -0.01234808936715126,
        -0.0007729174685664475,
        0.0,
        1.0
      ],
      "name": "Design_2"
    },
    {
      "mesh": 3,
      "name": "Object_9"
    },
    {
      "children": [
        11
      ],
      "matrix": [
        1.0,
        0.0,
        0.0,
        0.0,
        0.0,
        -3.371747936409264e-07,
        0.999999999999943,
        0.0,
        0.0,
        -0.999999999999943,
        -3.371747936409264e-07,
        0.0,
        -0.01234808936715126,
        -0.0007729174685664475,
        0.0,
        1.0
      ],
      "name": "Bottle_3"
    },
    {
      "mesh": 4,
      "name": "Object_11"
    }
  ],
  "samplers": [
    {
      "magFilter": 9729,
      "minFilter": 9987,
      "wrapS": 10497,
      "wrapT": 10497
    }
  ],
  "scene": 0,
  "scenes": [
    {
      "name": "Sketchfab_Scene",
      "nodes": [
        0
      ]
    }
  ],
  "textures": [
    {
      "sampler": 0,
      "source": 0
    },
    {
      "sampler": 0,
      "source": 1
    },
    {
      "sampler": 0,
      "source": 2
    },
    {
      "sampler": 0,
      "source": 3
    },
    {
      "sampler": 0,
      "source": 4
    },
    {
      "sampler": 0,
      "source": 5
    },
    {
      "sampler": 0,
      "source": 6
    },
    {
      "sampler": 0,
      "source": 7
    },
    {
      "sampler": 0,
      "source": 8
    },
    {
      "sampler": 0,
      "source": 9
    },
    {
      "sampler": 0,
      "source": 10
    }
  ]
}
